<svg width="32" height="32" viewBox="0 0 32 32" fill="none" xmlns="http://www.w3.org/2000/svg">
<path fill-rule="evenodd" clip-rule="evenodd" d="M28.2 0H3.8C1.7 0 0 1.7 0 3.8V28.2C0 30.3 1.7 32 3.8 32H28.2C30.3 32 32 30.3 32 28.2V3.8C32 1.7 30.3 0 28.2 0ZM24 4H27C27.6 4 28 4.4 28 5V8C28 8.6 27.6 9 27 9H24C23.4 9 23 8.6 23 8V5C23 4.4 23.4 4 24 4ZM16 9.9C19.4 9.9 22.2 12.6 22.2 16C22.2 19.4 19.4 22.1 16 22.1C12.6 22.1 9.8 19.4 9.8 16C9.9 12.6 12.6 9.9 16 9.9ZM28 29H4C3.4 29 3 28.6 3 28V13H7C6.5 13.8 6.3 15.1 6.3 16C6.3 21.4 10.7 25.7 16 25.7C21.4 25.7 25.7 21.3 25.7 16C25.7 15.1 25.6 13.7 24.9 13H28.9V28C29 28.6 28.6 29 28 29Z" fill="#444444"/>
</svg>
