<svg width="32" height="32" viewBox="0 0 32 32" fill="none" xmlns="http://www.w3.org/2000/svg">
<path fill-rule="evenodd" clip-rule="evenodd" d="M13.3 1.20001C13.2 1.20001 13.2 1.10001 13.1 1.10001C13 1.10001 13 1.10001 12.9 1.10001L13.3 1.20001Z" fill="#444444"/>
<path fill-rule="evenodd" clip-rule="evenodd" d="M1.2 13.2C1.2 13.3 1.2 13.3 1.2 13.4C1.2 13.5 1.3 13.5 1.3 13.6L1.2 13.2Z" fill="#444444"/>
<path fill-rule="evenodd" clip-rule="evenodd" d="M30.8 18.8C30.8 18.7 30.8 18.7 30.8 18.6C30.8 18.5 30.7 18.5 30.7 18.4L30.8 18.8Z" fill="#444444"/>
<path fill-rule="evenodd" clip-rule="evenodd" d="M18.5 30.7C18.6 30.7 18.6 30.8 18.7 30.8C18.8 30.8 18.8 30.8 18.9 30.8L18.5 30.7Z" fill="#444444"/>
<path fill-rule="evenodd" clip-rule="evenodd" d="M30.9 18.7C30.9 18.8 30.9 18.8 30.9 18.9L30.8 18.6C30.8 18.6 30.8 18.6 30.9 18.7C31.1 17.8 31.2 16.9 31.2 16C31.2 14 30.8 12 30 10.1C29.2 8.29999 28.2 6.7 26.8 5.29999C25.4 3.89999 23.8 2.79999 22 2.1C20 1.2 18 0.799995 16 0.799995C15 0.799995 14.1 0.899995 13.1 1.1C13.2 1.1 13.2 1.2 13.3 1.2H13C13.1 1.2 13.1 1.2 13.2 1.2C11.9 0.499995 10.5 0.199995 9 0.199995C6.6 -4.96209e-06 4.3 0.999995 2.6 2.7C0.9 4.29999 0 6.6 0 9C0 10.5 0.4 12 1.1 13.3C1.1 13.2 1.1 13.2 1.1 13.1L1.2 13.4C1.2 13.4 1.1 13.3 1.1 13.2C1 14.1 0.9 14.9 0.9 15.8C0.9 17.8 1.3 19.8 2.1 21.7C2.9 23.5 3.9 25.1 5.3 26.5C6.7 27.9 8.3 29 10.1 29.7C12 30.6 14 31 16 31C16.9 31 17.8 30.9 18.6 30.8C18.5 30.8 18.5 30.7 18.4 30.7L18.7 30.8C18.6 30.8 18.6 30.8 18.5 30.8C19.8 31.6 21.4 32 22.9 32C25.3 32 27.5 31.1 29.2 29.4C30.9 27.7 31.8 25.5 31.8 23.1C32 21.5 31.6 20 30.9 18.7ZM16.1 25.2C10.7 25.2 8.3 22.6 8.3 20.6C8.3 19.6 9 18.9 10.1 18.9C12.4 18.9 11.8 22.2 16.1 22.2C18.3 22.2 19.5 21 19.5 19.8C19.5 19.1 19.1 18.3 17.7 17.9L12.9 16.7C9.1 15.7 8.4 13.7 8.4 11.7C8.4 7.6 12.2 6.1 15.8 6.1C19.1 6.1 23 7.9 23 10.4C23 11.4 22.1 12 21.1 12C19.1 12 19.5 9.3 15.6 9.3C13.6 9.3 12.6 10.2 12.6 11.5C12.6 12.8 14.1 13.2 15.5 13.5L19 14.3C22.9 15.2 23.9 17.4 23.9 19.6C23.7 22.7 21.2 25.2 16.1 25.2Z" fill="#444444"/>
</svg>
