<?xml version="1.0" encoding="utf-8"?>
<!-- Generator: Adobe Illustrator 25.0.1, SVG Export Plug-In . SVG Version: 6.00 Build 0)  -->
<svg version="1.1" id="Capa_1" xmlns="http://www.w3.org/2000/svg" xmlns:xlink="http://www.w3.org/1999/xlink" x="0px" y="0px"
	 viewBox="0 0 32 32" style="enable-background:new 0 0 32 32;" xml:space="preserve">
<style type="text/css">
	.st0{fill:#444444;}
</style>
<g>
	<path class="st0" d="M10.9,12.5c1.5-0.3,3-0.7,4.4-1.2c-1.9-3.5-4.2-6.6-7-9.2c-4,2.2-7.1,6-8.1,10.6C3.3,13.3,7,13.3,10.9,12.5z"
		/>
	<path class="st0" d="M26,3.9l-0.3,1c-0.4,1.6-3.9,4-8.4,5.7l-0.2,0.1C15.3,7.2,13,4,10.2,1.3c1.8-0.7,3.7-1.1,5.7-1.1
		c3.6,0,6.9,1.3,9.5,3.3C25.7,3.5,25.9,3.7,26,3.9z"/>
	<path class="st0" d="M17.9,16.8c-0.5-1.3-1-2.6-1.6-3.9c-1.6,0.5-3.2,1-4.9,1.3C9.5,14.7,7.1,15,4.5,15c-1.5,0-3-0.1-4.5-0.4
		c0,0.5,0,1,0,1.5c0,4.9,2.2,9.3,5.7,12.2c0-0.1,0-0.2,0.1-0.3C6.5,23.7,11.5,19.1,17.9,16.8z"/>
	<path class="st0" d="M18.5,18.6c1.3,4,2,8.3,2.1,12.7c-1.5,0.4-3,0.7-4.6,0.7c-3,0-5.8-0.9-8.2-2.4c-0.1-0.4-0.1-0.9,0-1.4
		C8.3,24.7,12.9,20.6,18.5,18.6z"/>
	<path class="st0" d="M31.7,18.3c-0.8,5.5-4.4,10-9.3,12.2c-0.1-4.3-0.9-8.5-2.1-12.5C24.4,16.9,28.4,17,31.7,18.3z"/>
	<path class="st0" d="M31.8,16.1v0.3c-3.6-1.3-7.8-1.4-12.2-0.1c-0.5-1.3-1-2.7-1.6-3.9c3.1-1.2,8.8-3.8,9.6-7
		C30.2,8.2,31.8,11.9,31.8,16.1z"/>
</g>
</svg>
