<svg width="33" height="26" viewBox="0 0 33 26" fill="none" xmlns="http://www.w3.org/2000/svg">
<path fill-rule="evenodd" clip-rule="evenodd" d="M33 3.1C31.8 3.6 30.6 4 29.2 4.1C30.6 3.3 31.6 2 32.1 0.5C30.8 1.3 29.4 1.8 27.9 2.1C26.7 0.8 25 0 23.2 0C19.6 0 16.6 2.9 16.6 6.6C16.6 7.1 16.7 7.6 16.8 8.1C11.3 7.8 6.49999 5.2 3.19999 1.2C2.59999 2.2 2.29999 3.3 2.29999 4.5C2.29999 6.8 3.49999 8.8 5.19999 10C4.09999 10 3.09999 9.7 2.19999 9.2V9.3C2.19999 12.5 4.49999 15.1 7.49999 15.7C6.89999 15.8 6.39999 15.9 5.79999 15.9C5.39999 15.9 4.99999 15.9 4.59999 15.8C5.39999 18.4 7.89999 20.3 10.7 20.4C8.49999 22.2 5.59999 23.2 2.49999 23.2C1.99999 23.2 1.39999 23.2 0.899994 23.1C3.89999 24.9 7.39999 26 11.1 26C23.2 26 29.8 16 29.8 7.3C29.8 7 29.8 6.7 29.8 6.5C31 5.5 32.1 4.4 33 3.1Z" fill="#444444"/>
</svg>
