<?xml version="1.0" encoding="utf-8"?>
<svg version="1.1" xmlns="http://www.w3.org/2000/svg" xmlns:xlink="http://www.w3.org/1999/xlink" x="0px" y="0px"
	 viewBox="0 0 500 200" style="enable-background:new 0 0 500 200;" xml:space="preserve">
<path d="M484.2,107.9c-0.6-1-1.6-1.6-2.8-1.6c-0.5,0-1.1,0.1-1.5,0.4l0,0l0,0c-5,2.8-10,5.3-14.7,7.3c-5.6,2.3-10.7,3.9-15.4,5
	c-2.7,0.6-5.3,0.9-7.9,1.1c-1,0.1-1.9,0.1-2.8,0.1c-0.4,0-0.7,0-1.1,0c-1.2,0-2.4-0.1-3.8-0.3c-1.3-0.2-2.5-0.4-3.7-0.8
	c-1.3-0.4-2.5-0.8-3.6-1.2c-2.3-0.9-4.6-2.1-6.8-3.4c-1.2-0.8-2.2-1.5-3.1-2.1c-1-0.7-1.9-1.5-2.9-2.4c-1-0.9-1.9-1.8-2.8-2.7
	l-0.5-0.5c-0.8-0.8-1.6-1.7-2.6-2.6c-0.6-0.6-1.3-1.2-2.3-1.8c-0.7-0.4-1.3-0.6-1.9-0.8c-0.2,0-0.4-0.1-0.6-0.1l0,0l0,0
	c-0.3,0-0.6-0.1-0.9-0.1l-0.1,0c-0.6,0-1.1,0.1-1.4,0.2c-0.8,0.2-1.3,0.5-1.8,0.7c-0.4,0.2-0.8,0.5-1.3,0.8c-0.7,0.5-1.3,1-2,1.5
	c-0.2,0.2-0.5,0.4-0.7,0.6c0.4-1.4,0.8-2.8,1.1-4.2l0.1-0.3c0.6-2.5-0.7-5.1-3.1-6.1c-0.7-0.3-1.4-0.5-2.2-0.5
	c-2.1,0-4.1,1.3-4.9,3.2l-0.9,2.1c-0.3,0.7-0.6,1.4-0.9,1.9c0,0-0.1,0.1-0.1,0.3c-1.1,2.3-2,4-2.6,4.9c-0.1,0-0.3,0.1-0.4,0.1
	c-3.3,1.6-6.7,3.1-10.2,4.5l-0.5,0.2c-0.7,0.3-1.4,0.6-2.2,0.8c-1,0.4-1.8,0.7-2.6,1c-1.5,0.5-3.2,1.1-5.3,1.8
	c-3.2,1-6.6,1.9-10.8,2.9c-3.3,0.8-6.9,1.5-11,2.1c-3.8,0.6-7.5,1-11,1.1c-1.1,0-2.1,0.1-3,0.1c-0.8,0-1.6,0-2.4,0
	c-2.1-0.1-3.7-0.3-5.2-0.6c-1.7-0.4-3.2-0.9-4.3-1.6c-0.5-0.3-1-0.7-1.4-1.1c-0.3-0.4-0.6-0.8-0.7-1.3c-0.2-0.4-0.2-0.9-0.2-1.5
	c0-0.7,0.1-1.3,0.2-1.9c0.2-1.1,0.6-2.2,1.2-3.4l0.6-1.3c0.9-2.2,0.3-4.8-1.7-6.3c-0.9-0.7-2-1-3.1-1c-1.7,0-3.2,0.8-4.2,2.1
	l-0.9,1.3l-0.5,1.1c-0.1,0.7-0.2,1.6-0.3,2.5c-0.2,0.7-0.4,1.4-0.7,2.2c-0.7,1.6-1.6,3.2-2.6,4.6c-1,1.3-2.2,2.5-3.7,3.7
	c-0.7,0.5-1.3,0.9-2,1.3c-0.5,0.3-0.9,0.4-1.2,0.5c0-0.1,0-0.2,0-0.3c0-0.7,0.2-1.4,0.4-2.2c0.2-0.8,0.5-1.7,0.8-2.6
	c0.3-1,0.7-2,1.1-3.1c0.3-0.8,0.6-1.7,0.9-2.5l0.1-0.2c0.3-1,0.7-2,1-3.3c0.1-0.7,0.3-1.5,0.2-2.6c0-0.5-0.1-1.2-0.3-2
	c-0.3-1-0.8-1.9-1.5-2.6c-0.5-0.6-1.2-1-1.9-1.3c-0.6-0.2-1.3-0.4-1.9-0.4c-2.2,0-4.1,1.3-4.9,3.3l-0.4,0.9l0,0.1l0,0.1l-0.1,0.7
	c-0.1,0.8-0.2,1.5-0.3,2.1c-0.1,0.3-0.1,0.6-0.2,0.9c-0.1,0.2-0.1,0.3-0.2,0.5l-0.4,0.9c0,0.1-0.1,0.1-0.1,0.2c0,0-0.1,0-0.1,0.1
	c-5.7,4.9-12.6,9.2-20.5,12.9c-3.5,1.6-7.2,3.1-11.4,4.6c-3.8,1.3-7.8,2.5-11.8,3.4c-3.9,0.9-8,1.7-12,2.2c-3.5,0.4-6.6,0.7-9.4,0.7
	c-0.9,0-1.8,0-2.6-0.1c-2.1-0.1-4-0.3-5.7-0.7c-0.9-0.2-1.7-0.4-2.5-0.7c-0.7-0.3-1.4-0.6-1.7-0.9c0,0,0,0,0,0
	c0.1-0.2,0.2-0.6,0.3-1c0.2-0.6,0.6-1.3,1-2.1c0.4-0.7,0.9-1.5,1.4-2.4c0.3-0.5,0.7-1.1,1.1-1.7l0.6-0.9l0-0.1
	c0.5-0.8,1.1-1.7,1.7-2.6c0.5-0.8,1.1-1.9,1.7-3.1c0.3-0.6,0.6-1.2,0.8-1.9c0.3-0.8,0.5-1.6,0.6-2.9c0-0.6,0-1.4-0.2-2.4
	c-0.3-1-0.9-2.1-1.7-2.8c-0.3-0.3-0.7-0.6-1.2-0.9c-0.4-0.2-0.8-0.4-1.1-0.5c-0.7-0.3-1.3-0.4-1.8-0.4c-0.5-0.1-1-0.1-1.5-0.1
	c-0.2,0-0.5,0-0.7,0c0.3-0.4,0.6-0.7,0.9-1c1.3-1.6,2.7-3.3,4-5.1c0.3-0.5,0.7-0.9,1-1.4c0.3-0.4,0.6-1,0.9-1.5
	c0.7-1.2,1.2-2.2,1.6-3.2c0.4-1,0.9-2.3,1-3.9c0.1-0.9,0.1-1.7-0.1-2.5c-0.1-0.7-0.5-1.8-1.2-2.8c-0.8-1-1.7-1.7-2.4-2
	c-0.7-0.4-1.5-0.6-2.5-0.8c-0.3-0.1-0.7-0.1-1.1-0.1l-0.2,0c-0.1,0-0.2,0-0.4,0c-0.1,0-0.2,0-0.3,0c-0.1,0-0.3,0-0.4,0
	c-0.8,0-1.5,0.2-2.3,0.4c-1.2,0.3-2.3,0.8-3.6,1.5c-1,0.5-2.1,1.2-3.1,1.9c-1.9,1.3-3.7,2.9-5.3,4.7c-1.8,1.9-3.2,3.8-4.3,5.9
	c-0.6,1.1-1.1,2.3-1.5,3.5c-0.2,0.6-0.4,1.2-0.6,1.9c-0.1,0.3-0.1,0.7-0.2,1l0,0.2c0,0.1,0,0.2-0.1,0.4l-0.1,0.5
	c-0.1,0.9-0.1,1.7,0,2.5c0.1,0.9,0.3,1.8,0.6,2.6c0.3,0.9,0.9,1.8,1.5,2.6c-11.8,1.6-23.3,2.8-34.1,3.5c-10.8,0.8-21.2,1.2-31.1,1.2
	c-0.3,0-0.6,0-0.8,0c0.3-2.3,0.7-4.7,1.1-7c1-5.3,2.2-10.5,3.7-15.5c3.1-10.5,7.2-20.3,12.2-29.3c2.7-4.8,5.5-9.2,8.5-13.2
	c3.3-4.3,6.7-8.1,10.4-11.3c0.1-0.1,0.2-0.2,0.3-0.2c0.9-0.9,5.2-4.5,8.7-4.6l0,0l0,0l0.1,0c2.4-0.3,4.2-2.5,4-4.9
	c-0.2-2.4-2.2-4.2-4.6-4.2h0c-0.1,0-0.3,0-0.4,0c-2.1,0.2-4.2,0.6-6.3,1.2c-1.8,0.5-3.7,1.2-5.9,2.2c-1.7,0.8-3.4,1.7-5.4,3
	c-2,1.3-3.5,2.4-4.9,3.4C139,35.9,133.8,41.1,128,48c-9.9,11.8-18.5,24.9-26.1,36.5l-0.7,1.2c-3.1,4.8-6.3,9.7-9.5,14.5
	c-1.2-1.3-2.4-2.5-3.6-3.6c-5.4-5.3-11.2-10-17.1-14c-6.5-4.4-13.1-7.9-19.7-10.5c-3.5-1.4-7.2-2.5-10.9-3.3
	c-4.2-0.9-8-1.3-11.5-1.3l-0.5,0c-0.3,0-0.5,0-0.8,0l-0.2,0l-1.4,0c-0.4,0-0.8,0-1.2,0.1l-0.2,0l-0.7,0l-0.2,0c-0.2,0-0.4,0-0.6,0
	c-2.7,0.3-4.8,0.8-6.8,1.9c-1.3,0.6-2.4,1.5-3.3,2.5c-0.5,0.6-1,1.1-1.4,1.8c-0.4,0.6-0.7,1.3-1,2c-0.2,0.7-0.4,1.4-0.5,2.2
	c-0.1,0.7-0.1,1.4-0.1,2.1c0,1.3,0.3,2.6,0.7,3.8c0.7,2,1.7,3.9,3.1,6c1.2,1.6,2.5,3.1,4.1,4.6c2.6,2.4,5.7,4.7,9.3,6.9
	c5.8,3.5,12.5,6.4,20.5,9c6.6,2.1,13.6,3.9,21.3,5.3c3.4,0.6,7,1.2,10.6,1.7c-0.9,1.1-1.7,2.1-2.5,3c-1.3,1.5-2.4,2.7-3.5,3.8
	c-1.3,1.3-2.5,2.3-3.7,3.2c-2.8,2-5.7,3.5-8.6,4.3c-1.5,0.5-3,0.7-4.5,0.8c-0.3,0-0.5,0-0.8,0c-1.2,0-2.4-0.2-3.6-0.4
	c-1.4-0.4-2.7-1-3.8-1.7c-1.1-0.8-2-1.8-2.5-2.9l0,0c-0.6-1.2-1.7-1.9-3-1.9c-0.4,0-0.9,0.1-1.3,0.3c-0.8,0.3-1.5,1-1.8,1.8
	c-0.3,0.8-0.3,1.8,0,2.6c0.9,2.1,2.4,4.1,4.3,5.7c0.9,0.7,1.9,1.4,2.9,1.9c1.1,0.6,2.1,1,3.2,1.3c2.1,0.7,4.3,1,6.6,1l0.3,0
	c2,0,4.1-0.3,6.2-0.7c1.9-0.5,4-1.2,6-2.1c0.4-0.2,0.8-0.4,1.2-0.6l0.2-0.1c0.4-0.2,0.9-0.5,1.3-0.7l0.1,0c0.4-0.2,0.8-0.5,1.3-0.8
	l0.6-0.4c0.2-0.1,0.3-0.2,0.5-0.3l0.2-0.1c3.6-2.4,6.5-5.3,9-8c1.1-1.2,2.3-2.6,3.8-4.3c0.9-1.1,1.8-2.2,2.8-3.4
	c2.6,0.2,5.2,0.4,7.8,0.6c4,5.2,7.5,10.5,10.4,15.8c2.9,5.3,5,10.2,6.4,15c0.3,1.5,0.6,3,1,4.4c0.5,2.1,2.4,3.6,4.6,3.6
	c0.3,0,0.6,0,1-0.1c1.2-0.3,2.3-1,3-2s0.9-2.3,0.7-3.5c-1-4.9-1.8-10-2.4-15.5c-0.6-5.7-0.8-10.9-0.6-15.8c0-0.4,0-0.9,0.1-1.3
	c10.6-0.1,21.8-0.6,33.3-1.6c13.7-1.2,27.7-2.9,42.8-5.3c0.4-0.1,0.7-0.2,1.1-0.4c0.8,0.1,1.6,0.1,2.4,0.1c0.3,0,0.6,0,0.9,0
	c0.4,0,0.8,0,1.2-0.1c0,0.1-0.1,0.1-0.1,0.2l-0.1,0.2c-0.5,0.8-1,1.6-1.5,2.5c-0.6,1-1.2,1.9-1.7,2.9c-0.7,1.2-1.2,2.2-1.6,3.2
	c-0.4,1-0.9,2.3-1.2,3.9c-0.2,0.9-0.2,1.7-0.2,2.4c0,1,0.2,2,0.4,2.9c0.3,1,0.9,2,1.6,2.8c0.6,0.7,1.3,1.3,2.1,1.8
	c1.5,0.9,2.8,1.3,4,1.6c1.1,0.3,2.2,0.5,3.6,0.7c1.6,0.2,3.2,0.3,5.2,0.3c0.5,0,1.1,0,1.6,0c4.1-0.1,8.4-0.5,13-1.2
	c3.9-0.6,8.1-1.4,12.6-2.6c4-1,8.1-2.3,12.3-3.7c3.9-1.4,7.9-3,11.9-4.8c7-3.2,13.5-7,19.2-11.1c-0.1,0.7-0.2,1.5-0.3,2.3
	c-0.1,1.2-0.2,2.4-0.1,3.7c0,0.6,0.1,1.4,0.4,2.2c0.3,1,0.8,1.9,1.4,2.6c0.3,0.4,0.8,0.8,1.3,1.1l0,0l0.1,0c0.2,0.1,0.4,0.3,0.7,0.4
	l0.1,0c0.1,0,0.2,0.1,0.3,0.1c0.2,0.1,0.3,0.1,0.5,0.2c0.5,0.2,1.1,0.2,1.7,0.2c0.5,0,1-0.1,1.3-0.1c0.8-0.1,1.5-0.4,2.1-0.6
	c0.6-0.2,1.2-0.5,1.7-0.8c0.9-0.5,1.8-1.1,2.9-2c1.7-1.3,3.1-2.8,4.5-4.3c0.1,0.2,0.2,0.5,0.4,0.7c0.7,1.2,1.7,2.3,2.7,3.2
	c0.9,0.8,2,1.4,3.3,2c1.9,0.8,4,1.4,6.5,1.7c2.1,0.3,4.3,0.4,6.7,0.4c1.6,0,3.4-0.1,5.3-0.2c1.8-0.1,3.7-0.3,5.8-0.6
	c2.1-0.3,4-0.6,5.8-0.9c1.9-0.3,3.9-0.7,5.7-1.1c1.8-0.4,3.7-0.8,5.6-1.3c3.3-0.8,6.9-1.7,11.1-3c6.3-1.9,12.7-4.2,19-6.7
	c0,0.1,0,0.2-0.1,0.3l-0.3,1.1c-0.2,1-0.5,2-0.7,2.9l-0.1,0.5l-0.1,0.2l0,0.1l-0.1,0.2l0,0.2l-0.1,0.2c0,0.2-0.1,0.4-0.1,0.6
	c0,0.1,0,0.4,0,0.6c0,0.1,0,0.3,0,0.5c0,0.1,0,0.3,0.1,0.6l0,0.1c0.1,0.2,0.1,0.4,0.2,0.8c0.2,0.4,0.3,0.8,0.8,1.3
	c0.4,0.5,0.9,0.9,1.5,1.2c0.7,0.3,1.1,0.4,1.5,0.5c0.2,0,0.4,0,0.6,0c0.5,0,0.9-0.1,1.1-0.1c0.2-0.1,0.4-0.1,0.5-0.1
	c0.1,0,0.2-0.1,0.3-0.1c0.2-0.1,0.3-0.2,0.4-0.2c0.1-0.1,0.2-0.1,0.3-0.2c0.3-0.2,0.4-0.3,0.6-0.4c0.3-0.3,0.5-0.5,0.7-0.7
	c0.2-0.2,0.3-0.4,0.5-0.5c0.3-0.3,0.5-0.6,0.8-0.9l2.6-3.4c0.9-1.1,1.8-2.2,2.6-3.1c2.2-2.4,4-4.1,5.7-5.4c0.5-0.4,1-0.7,1.4-0.9
	c0,0,0.1,0,0.1-0.1c0.2,0.2,0.4,0.4,0.7,0.6c0.5,0.5,1,1.1,1.5,1.7c0.4,0.4,0.8,0.9,1.2,1.3c1,1,2,2.1,3.1,3.2c1.1,1,2.3,2,3.6,3
	c1.4,1,2.7,1.8,3.9,2.5c2.6,1.4,5.5,2.6,8.6,3.4c1.4,0.4,2.9,0.7,4.4,1c1.8,0.3,3.2,0.5,4.5,0.6c1.3,0.1,2.7,0.2,4.1,0.2
	c4.3,0,8.8-0.5,13.6-1.7c2.8-0.6,5.6-1.4,8.4-2.4c2.8-0.9,5.5-1.9,8.1-3c4.7-2,9.8-4.4,15.4-7.3l0,0l0,0l0,0l0,0
	C484.6,111.4,485.1,109.4,484.2,107.9z M208.1,90.5c-0.2,0.4-0.4,0.8-0.7,1.2c-0.3,0.4-0.5,0.8-0.8,1.2c-1.2,1.7-2.5,3.4-3.6,4.8
	c-1.5,1.8-3.1,3.6-4.8,5.5c-1-0.2-1.8-0.5-2.3-0.9c-0.3-0.2-0.5-0.4-0.6-0.7c-0.1-0.1-0.1-0.3-0.1-0.4c0-0.2,0-0.4,0-0.7l0-0.2
	c0,0,0-0.1,0-0.1l0-0.2c0-0.2,0-0.3,0.1-0.5c0.1-0.4,0.2-0.8,0.3-1.1c0.2-0.8,0.5-1.6,0.9-2.3c0.7-1.5,1.7-3,2.9-4.4
	c1.2-1.4,2.5-2.7,3.9-3.8c0.7-0.6,1.5-1.1,2.2-1.5c0.8-0.5,1.5-0.8,2.1-1c0.5-0.2,0.7-0.2,1-0.2c0.1,0,0.3,0,0.5,0
	c0.2,0,0.4,0.1,0.5,0.1c0,0,0,0,0,0c0,0,0,0,0,0c0,0.1,0.1,0.3,0,0.6c0,0.6-0.2,1.3-0.5,2.1C209,88.7,208.6,89.5,208.1,90.5z
	 M127.6,64.9c-3.1,7.2-5.7,14.7-7.9,22.5c-1.5,5.6-2.7,11.1-3.6,16.4c-0.5,2.8-0.9,5.5-1.2,8.3c-0.9,0-1.7,0-2.6-0.1
	c-3.7-0.1-7.3-0.3-10.9-0.5c-1.1-1.4-2.1-2.7-3.2-4c3.2-4.6,6.4-9.3,9.5-13.9c0.8-1.2,1.6-2.4,2.5-3.6c3.7-5.6,8-12,12.4-18.2
	C124.3,69.4,125.9,67.1,127.6,64.9z M112.1,119.6c0.7,0,1.4,0,2,0c0,0.3,0,0.5-0.1,0.8c-0.2,2.7-0.4,6-0.6,9.4
	c-1.9-3.5-4-6.9-6.3-10.4C108.9,119.5,110.5,119.6,112.1,119.6z M87.2,106.7c-0.8,1.1-1.5,2.1-2.2,3.2c-5-0.6-9.9-1.4-14.6-2.3
	c-7.4-1.4-14-3.1-20.2-5.2c-7.3-2.5-13.4-5.2-18.6-8.4c-3.1-1.9-5.7-3.8-7.8-5.9c-1.2-1.1-2.2-2.3-3-3.4c-0.9-1.2-1.5-2.4-1.8-3.5
	c-0.2-0.5-0.2-1-0.3-1.5c0-0.4,0-0.7,0.2-1c0-0.1,0.1-0.3,0.2-0.4c0.1-0.1,0.2-0.2,0.3-0.3c0.2-0.2,0.6-0.5,1-0.7
	c0.9-0.4,2.1-0.7,3.5-0.9c0.1,0,0.3,0,0.4,0l0.2,0l0.6,0l0.2,0c0.3,0,0.6,0,0.8,0l0.1,0l0,0l0,0l1.2,0c0.2,0,0.5,0,0.8,0l0.5,0
	c6.1,0.2,12.7,1.6,19.5,4c6,2.1,12.1,5.2,18.2,9.2c2.8,1.8,5.7,3.8,8.4,6c2.7,2.1,5.3,4.3,7.9,6.7C84.1,103.7,85.6,105.2,87.2,106.7
	z"/>
</svg>
