<svg width="32" height="32" viewBox="0 0 32 32" fill="none" xmlns="http://www.w3.org/2000/svg">
<path fill-rule="evenodd" clip-rule="evenodd" d="M30.7 0H1.3C0.6 0 0 0.6 0 1.3V30.6C0 31.4 0.6 32 1.3 32H30.6C31.3 32 31.9 31.4 31.9 30.7V1.3C32 0.6 31.4 0 30.7 0ZM9.5 27.3H4.7V12H9.5V27.3ZM7.1 9.9C5.6 9.9 4.3 8.7 4.3 7.1C4.3 5.6 5.5 4.3 7.1 4.3C8.6 4.3 9.9 5.5 9.9 7.1C9.9 8.7 8.6 9.9 7.1 9.9ZM27.3 27.3H22.6V19.9C22.6 18.1 22.6 15.9 20.1 15.9C17.6 15.9 17.3 17.8 17.3 19.8V27.4H12.6V12H17V14.1H17.1C17.7 12.9 19.3 11.6 21.6 11.6C26.4 11.6 27.3 14.8 27.3 18.9V27.3Z" fill="#444444"/>
</svg>
