<?xml version="1.0" encoding="utf-8"?>
<!-- Generator: Adobe Illustrator 25.0.0, SVG Export Plug-In . SVG Version: 6.00 Build 0)  -->
<svg version="1.1" id="Layer_1" xmlns="http://www.w3.org/2000/svg" xmlns:xlink="http://www.w3.org/1999/xlink" x="0px" y="0px"
	 viewBox="0 0 258.3 103.3" style="enable-background:new 0 0 258.3 103.3;" xml:space="preserve">
<style type="text/css">
	.st0{fill:#020202;}
</style>
<g>
	<path class="st0" d="M86.1,42.1l0-0.4c-0.3-1.1-1.7-1.3-4.4-1.3h0c1.1-4.4,3.9-15.1,3.9-23.3C85.5,7.9,81.9,6,78.9,6
		c-0.4,0-0.9,0-1.3,0.1c-2.4,0.4-5.3,1.9-8.6,4.5c-0.3,0.2-0.6,0.4-0.7,0.6c-5.2,4.4-13.9,16.1-24,32.3l-1.4,0.1
		c-3.1,0.3-6.1,0.6-9,0.8c-2.1-3-5.7-4.5-10.4-4.5c-7,0-15.7,3.8-15.7,6.9c0,0.4,0.1,0.6,0.2,0.9c0.3,0.8,1,2.1,11.3,2.1
		c4.2,0,9.1-0.2,13.8-0.6c0.6,1.3,0.9,2.9,0.9,4.7c0,3.4-1,7-1.9,10.3l0,0c-5.6,9.6-8.7,16.9-8.7,20.6c0,2.6,1.5,2.8,2,2.8
		c0.6,0,1.2-0.2,1.9-0.8c2.5-1.8,3.7-6.1,5.6-12.5c0.3-1.1,0.6-2.2,1-3.4c0.6-2.2,1.1-4,1.5-5.7c3.3-6,6.8-11.8,10.2-17.3
		c5-0.5,10.2-1.3,15.2-2c5-0.8,10.2-1.5,15.2-2c-2.2,8.2-4.7,17-8,26.8c-0.1,0.3-0.5,0.5-0.9,0.8c-0.6,0.4-1.4,0.9-1.8,1.9l-0.1,0.2
		v0.3c0,1.6,1.6,2.5,3.2,2.5c1.4,0,2.5-0.8,2.7-2c3.8-10.9,7-20.7,9.3-29.1C84.5,44.3,86.1,43.4,86.1,42.1z M15.3,45.6
		c-0.5,0-0.9,0-1.2,0c2.5-1,6.4-2.3,10.1-2.3c2.3,0,4.2,0.5,5.7,1.5C23.6,45.4,18.6,45.6,15.3,45.6z M36.9,55.7
		c0.1-0.6,0.1-1.3,0.1-2c0-1.7-0.3-3.3-0.8-4.9c1.6-0.3,3.2-0.4,5.1-0.6C39.7,50.9,38.3,53.4,36.9,55.7z M77.1,39.5
		c-0.1,0.4-0.2,0.8-0.3,1.1c-7.5,0.4-15.2,1.2-22.6,2c-1.9,0.2-3.7,0.4-5.6,0.6c9.3-14.7,17.2-25.4,21.9-29.3l0.2-0.1
		c0.2-0.1,0.3-0.2,0.4-0.4c2.9-2.2,5.3-3.5,7.1-3.8l0.1,0c0.2,0,0.3-0.1,0.5-0.1c1.9,0,2.8,2.1,2.8,6.3
		C81.6,23.2,78.4,34.7,77.1,39.5z"/>
	<path class="st0" d="M228.8,38c1.6,0,3.2-1.8,3.4-3.4c0-0.2,0.1-0.4,0.1-0.6c0-1.5-1.1-2.4-2.1-2.4c-0.4,0-0.8,0.2-1,0.3l-0.2,0.1
		l-0.1,0.1c-0.3,0.4-2,2.3-2,3.9c0,0.3,0.1,0.8,0.4,1.2C227.7,37.8,228.2,38,228.8,38z"/>
	<path class="st0" d="M244,45.4L244,45.4c-0.3-0.1-0.6-0.1-0.8-0.1c-2.9,0-10,2.6-14.7,6.2c0.7-2.6,1.6-6,2.3-8.4
		c0.1-0.3,0.2-0.6,0.2-0.9c0-1.3-0.9-2.2-2.1-2.2c-1.1,0-2.3,0.8-2.5,2.2c-0.2,1-0.4,2-0.6,2.9c-0.2,0.2-0.3,0.3-0.4,0.6
		c-1.3,1.5-10.3,6.7-15.1,6.7c-1.9,0-2.3-0.7-2.3-1.8c0-0.7,0.2-1.6,0.6-2.6c0.7-1.8,1.1-3.3,1.1-4.4c0-1.8-1-2.3-1.5-2.4
		c-0.2-0.1-0.4-0.1-0.6-0.1c-0.5,0-1.4,0.2-3.4,1.7c-0.6-0.4-1.5-0.7-2.7-0.7c-0.8,0-1.6,0.1-2.4,0.4c-2.2,0.6-3.9,2.1-5,3.4l-0.3,0
		c-0.9,0.1-2.3,0.1-3.8,0.1c-6.1,0-10-1.2-10.9-3.3l-0.1-0.2c-1-1.4-2.2-1.6-3-1.6c-0.9,0-1.9,0.4-2.9,1c-0.2-1-1.2-1.7-2.5-1.7
		c-1.2,0-2.1,0.6-2.5,1.7l-1.2,5.2c-3.8,2.7-7.1,4.9-9.7,4.9c-1.4,0-3.5-0.5-5.4-5c-0.8-1.8-2-2.2-2.9-2.2c-1.2,0-2.4,0.7-4,2.2
		l1.4-4.6l0-0.4c0-1.5-1.2-2.4-2.4-2.4c-1.1,0-2.1,0.8-2.4,1.9l-1,4.1l0,0c-1.8,1.5-9.1,7-11.4,7c-0.1,0-0.2,0-0.2,0
		c-0.1-0.1-0.7-0.5-0.7-2.8c0-1.5,0.2-3.4,0.7-5.4c0-0.2,0-0.2,0-0.3c0-1.5-1.2-3-2.6-3c-0.7,0-1.7,0.5-1.9,2.1
		c-0.1,2.2-6.2,10-7.9,10.8c0-0.1,0-0.2,0-0.3c0-1.9,1.7-6.3,4.8-11l0.1-0.1l0-0.2c0.1-0.3,0.1-0.5,0.1-0.6c0-1.7-1.5-2.8-3-2.8
		c-1.1,0-2,0.6-2.4,1.7l0,0.1c-0.9,1.7-1.6,3.5-2.2,5.1c0,0,0,0,0,0l-0.6,0c-0.9,0.1-2.3,0.1-3.8,0.1c-6.1,0-10-1.2-10.9-3.3
		l-0.1-0.2c-1-1.4-2.2-1.6-3-1.6c-0.9,0-1.9,0.4-2.9,1c-0.2-1-1.2-1.7-2.5-1.7c-1.2,0-2.1,0.6-2.5,1.7L84,56.2
		c0,0.1-0.1,0.2-0.1,0.4c0,1.1,1.3,1.7,2.5,1.7c1.4,0,2-0.7,2.1-1.5c0,0,0-0.1,0-0.1c4.2-9.5,6.5-11.7,7-11.7c0,0,0,0,0.1,0.1
		c2.3,3.3,8,3.9,12.3,3.9c1.8,0,3.5-0.1,4.8-0.3c-0.4,1.6-0.6,3.1-0.6,4.3c0,3,1.3,4.3,2.4,4.9c0.5,0.3,1,0.4,1.6,0.4
		c3.2,0,6.5-4,8.5-6.9c0.4,1.9,1.2,3.2,2.4,3.8c0.5,0.3,1.1,0.4,1.8,0.4c2.8,0,6.8-2.3,9.9-4.4l-1.5,5.8l0,0.4c0,1,0.8,1.8,2,1.8
		c1,0,2.1-0.4,2.5-1.4l0.1-0.2l0-0.1c0.5-1.3,5-7.3,6.7-8.2c1.8,3.9,4.5,5.9,8,5.9c3.1,0,6.2-1.6,8.7-3.2l-1,4
		c0,0.1-0.1,0.2-0.1,0.4c0,1.1,1.3,1.7,2.5,1.7c1.4,0,2-0.7,2.1-1.5c0,0,0-0.1,0-0.1c4.2-9.5,6.5-11.7,7-11.7c0,0,0,0,0.1,0.1
		c3,4.2,11.5,4.1,15.6,3.8c-0.1,0.2-0.2,0.4-0.3,0.6c-0.4,0.9-0.7,1.8-0.8,2.5c-0.1,0.3-0.1,0.6-0.1,0.8c0,0.8,0.2,1.5,0.7,2.1
		c0.5,0.5,1,0.9,1.6,1l0.4,0.1c2,0,5.2-2.9,9.2-6.6c0,0,0.7-0.7,0.8-0.7c0.4,0.1,0.8,0.1,1.2,0c-0.1,0.6-0.1,1.1-0.1,1.6
		c0,3.3,1.9,5.1,5.4,5.1c4.5,0,11-3,14.7-5.1c-0.8,2.8-1.7,5.5-2.8,8.4c-6,8.3-10.4,17-12.4,24.6c-0.1,0.5-0.6,2.1-0.6,3.6
		c0,2.5,1.2,3.4,2.1,3.7c0.3,0.1,0.5,0.1,0.6,0.1c0.9,0,2.9,0,7.4-11.9l0.1-0.2c0.3-0.8,0.7-1.8,1.1-2.9c2-5.4,4.8-12.8,6.2-17.6
		c2.1-2.7,7.7-8.7,17.4-9l0.4,0l0.3-0.2c0.6-0.6,1-1.2,1-1.7C245.3,46.6,245.1,45.8,244,45.4z M198.1,49.7c-0.8,0.7-1.6,1.7-2.3,2
		c-0.7,0.4-1.3,0.1-1.6-0.2c-0.5-0.5,0.5-2.2,2.2-3.7c0.8-0.8,1.7-1.5,2.4-1.9c0.7-0.3,1.3-0.2,1.5,0
		C200.7,46.6,199.7,48.2,198.1,49.7z M215.9,78.3c-1.8,4-3.4,6.5-4.4,8.3c0.1-1.6,1-5.2,2.6-9.1c1.2-3,4.4-7.5,4.8-8.4
		C218.7,69.9,218.6,72.6,215.9,78.3z"/>
</g>
</svg>
